# xmcd
#
# Track frame offsets:
#	150
#	17605
#	38557
#	62461
#	91759
#	117494
#	144521
#	171393
#	197052
#	229103
#	258430
#	279726
#	308083
#
# Disc length: 4597 seconds
#
# Revision: 1
# Processed by: cddbd v1.5.2PL0 Copyright (c) Steve Scherf et al.
# Submitted via: audiograbber 1.83.01
#
DISCID=ad11f30d
DTITLE=Demian Bell and the Maypole - Live in Germany
DYEAR=2009
DGENRE=
TTITLE0=Messing with the Kid
TTITLE1=King Bee
TTITLE2=Flip Flop Fly
TTITLE3=Old love
TTITLE4=All your Lovin´
TTITLE5=Load and Fire
TTITLE6=Cold Shot
TTITLE7=B Movie
TTITLE8=Georgia on my Mind
TTITLE9=Not fade Away - Mona
TTITLE10=Unchain my Heart
TTITLE11=Walking the Dog
TTITLE12=Dynamite
EXTD=
EXTT0=
EXTT1=
EXTT2=
EXTT3=
EXTT4=
EXTT5=
EXTT6=
EXTT7=
EXTT8=
EXTT9=
EXTT10=
EXTT11=
EXTT12=
PLAYORDER=
